<svg xmlns="http://www.w3.org/2000/svg" viewBox="0 0 525.18 458.59"><defs><style>.cls-1{fill:none;stroke:#ed1c24;stroke-miterlimit:10;}.cls-2{fill:#f7931e;}.cls-3{fill:#fbae17;}.cls-4{fill:#f15a24;}.cls-5{fill:#c1272d;}.cls-6{fill:#ffd400;}.cls-7{fill:#f2f2f2;}.cls-8{fill:#29abe2;}.cls-9{fill:#fff;}</style></defs><title>face2</title><g id="Layer_2" data-name="Layer 2"><g id="face2"><g id="Layer_3" data-name="Layer 3"><path class="cls-1" d="M117.18,216c-55.9-16.47-91.77,25.44-113.5,77.5-14.26,34.17,23.39,52.66,34.5,132.5,3.71,26.67,1.23,17.36-1.5,32.5"/><circle class="cls-2" cx="303.18" cy="222" r="222"/><circle class="cls-3" cx="266.68" cy="109.5" r="98.5"/></g><g id="Layer_5" data-name="Layer 5"><path class="cls-4" d="M255.58,355.34c-7.39,0,58.6,17.66,63.6,18.66,1,7,36,11,37,8,5-2,5-24,2-27C354.18,355,264.81,355.34,255.58,355.34Z"/><path class="cls-5" d="M253.2,354.84c2.45.62,62,11.16,68,12.16,4,4,44.54,21.38,36.59-12.16"/></g><g id="Layer_2-2" data-name="Layer 2"><path class="cls-6" d="M248.31,179.15c-14.85-42.06-39.74-52.74-61.9-29.22-29.11,30.9-31,106.21,9.5,143"/><ellipse class="cls-7" cx="212.68" cy="222" rx="43" ry="76.5"/><circle class="cls-8" cx="213.18" cy="247" r="25"/><circle cx="214.18" cy="247" r="8"/><circle class="cls-9" cx="218.68" cy="253.5" r="1.5"/><path class="cls-6" d="M357.41,183.4c14.86-42.06,39.74-52.74,61.9-29.22,29.11,30.9,31,106.21-9.5,143"/><ellipse class="cls-7" cx="393.04" cy="226.25" rx="43" ry="76.5"/><circle class="cls-8" cx="394.54" cy="251.25" r="25"/><circle cx="393.54" cy="251.25" r="8"/><circle class="cls-9" cx="389.04" cy="257.75" r="1.5"/><path class="cls-4" d="M323.18,269c-17,28-39,7-47.27,37.92C270,329,303.08,334.81,323.18,330"/></g></g></g></svg>